<?xml version="1.0" encoding="UTF-8"?>
<svg id="_x39_09cf315-dd7e-4134-adb1-a93909e9c27f" xmlns="http://www.w3.org/2000/svg" version="1.1" viewBox="0 0 300 300">
  <!-- Generator: Adobe Illustrator 29.6.1, SVG Export Plug-In . SVG Version: 2.1.1 Build 9)  -->
  <path d="M48.12,53.29c16.23,0,27.18,9.19,30.71,20.77V30h2.4v89.33h-2.4v-20c-3.53,11.7-14.48,20.89-30.71,20.89-19.5,0-33.12-12.68-33.12-33.45s13.58-33.48,33.12-33.48ZM48.12,55.46c-18.64,0-30.6,11.82-30.6,31.28s11.96,31.26,30.6,31.26,30.71-12.45,30.71-31.27-13-31.28-30.71-31.28h0Z"/>
  <path d="M132.57,53.29c16.23,0,27.18,9.19,30.71,20.77v-19.91h2.41v65.18h-2.4v-19.92c-3.53,11.59-14.48,20.78-30.71,20.78-19.5,0-33.12-12.68-33.12-33.45s13.61-33.45,33.11-33.45h0ZM132.57,55.46c-18.64,0-30.6,11.82-30.6,31.28s12,31.27,30.6,31.27,30.71-12.45,30.71-31.27-13-31.28-30.71-31.28Z"/>
  <path d="M185.07,34.24c0-1.81,1.45-3.29,3.26-3.3s3.29,1.45,3.3,3.26c0,1.81-1.45,3.29-3.26,3.3h0c-1.73.07-3.19-1.27-3.27-3-.03-.08-.04-.17-.03-.26Z"/>
  <rect x="187.09" y="54.15" width="2.51" height="65.18"/>
  <rect x="210.98" y="30" width="2.51" height="89.33"/>
  <polygon points="282.49 54.15 285.01 54.15 246.23 150 243.6 150 255.94 119.7 226.73 54.15 229.24 54.15 257.18 116.81 282.49 54.15"/>
  <polygon points="30.01 196.24 92.33 196.24 92.33 214.39 72.68 214.39 72.68 269.29 49.47 269.29 49.47 214.39 30.01 214.39 30.01 196.24"/>
  <path d="M134.69,270c-21,0-38.18-15.56-38.18-37.54s17.18-37.46,38.18-37.46,38,15.49,38,37.46-17.1,37.54-38,37.54ZM134.69,248.62c9.3,0,14.43-6.48,14.43-16.2s-5.13-16.31-14.43-16.31-14.55,6.38-14.55,16.31c.01,9.72,5.04,16.2,14.55,16.2Z"/>
  <polygon points="181.02 196.24 209.44 196.24 225.76 240.07 241.65 196.24 270.01 196.24 270.01 269.29 246.9 269.29 246.9 232.87 235.51 269.29 215.63 269.29 204.23 232.87 204.23 269.29 181.02 269.29 181.02 196.24"/>
</svg>